<svg width="21" height="21" viewBox="0 0 21 21" fill="none" xmlns="http://www.w3.org/2000/svg">
<path d="M10.7355 0.34375C5.09934 0.34375 0.529907 4.89111 0.529907 10.5C0.529907 16.1089 5.09934 20.6562 10.7355 20.6562C16.3716 20.6562 20.941 16.1089 20.941 10.5C20.941 4.89111 16.3716 0.34375 10.7355 0.34375ZM15.4457 12.0625H10.7355C10.5273 12.0625 10.3276 11.9802 10.1804 11.8337C10.0331 11.6872 9.95042 11.4885 9.95042 11.2812V4.25C9.95042 4.0428 10.0331 3.84409 10.1804 3.69757C10.3276 3.55106 10.5273 3.46875 10.7355 3.46875C10.9437 3.46875 11.1433 3.55106 11.2906 3.69757C11.4378 3.84409 11.5205 4.0428 11.5205 4.25V10.5H15.4457C15.6539 10.5 15.8536 10.5823 16.0008 10.7288C16.148 10.8753 16.2308 11.074 16.2308 11.2812C16.2308 11.4885 16.148 11.6872 16.0008 11.8337C15.8536 11.9802 15.6539 12.0625 15.4457 12.0625Z" fill="white"/>
</svg>
