<svg width="26" height="25" viewBox="0 0 26 25" fill="none" xmlns="http://www.w3.org/2000/svg">
<g clip-path="url(#clip0_12_541)">
<path d="M12.984 4.9453C12.9109 4.87576 12.8137 4.83694 12.7127 4.83694C12.6116 4.83694 12.5144 4.87576 12.4413 4.9453L3.40843 13.5327C3.37007 13.5692 3.33955 13.6131 3.31872 13.6617C3.29789 13.7103 3.28718 13.7626 3.28724 13.8154L3.28577 21.875C3.28577 22.2894 3.45119 22.6868 3.74563 22.9798C4.04008 23.2729 4.43944 23.4375 4.85585 23.4375H9.57101C9.77922 23.4375 9.9789 23.3552 10.1261 23.2087C10.2733 23.0622 10.3561 22.8634 10.3561 22.6562V16.0156C10.3561 15.912 10.3974 15.8127 10.471 15.7394C10.5446 15.6661 10.6445 15.625 10.7486 15.625H14.6738C14.7779 15.625 14.8777 15.6661 14.9513 15.7394C15.025 15.8127 15.0663 15.912 15.0663 16.0156V22.6562C15.0663 22.8634 15.149 23.0622 15.2962 23.2087C15.4435 23.3552 15.6431 23.4375 15.8514 23.4375H20.5646C20.981 23.4375 21.3803 23.2729 21.6748 22.9798C21.9692 22.6868 22.1346 22.2894 22.1346 21.875V13.8154C22.1347 13.7626 22.124 13.7103 22.1032 13.6617C22.0823 13.6131 22.0518 13.5692 22.0134 13.5327L12.984 4.9453Z" fill="white"/>
<path d="M24.2371 11.9214L20.567 8.42725V3.125C20.567 2.9178 20.4843 2.71909 20.3371 2.57257C20.1899 2.42606 19.9902 2.34375 19.782 2.34375H17.4269C17.2186 2.34375 17.019 2.42606 16.8717 2.57257C16.7245 2.71909 16.6418 2.9178 16.6418 3.125V4.6875L13.8 1.9834C13.534 1.71582 13.1386 1.5625 12.7112 1.5625C12.2853 1.5625 11.8908 1.71582 11.6249 1.98389L1.18874 11.9204C0.883556 12.2134 0.845286 12.6953 1.12299 13.0127C1.19273 13.0928 1.27812 13.158 1.37396 13.2042C1.4698 13.2504 1.5741 13.2768 1.68049 13.2816C1.78689 13.2864 1.89316 13.2697 1.99284 13.2324C2.09252 13.195 2.18353 13.1379 2.26032 13.0645L12.4413 3.38281C12.5144 3.31327 12.6116 3.27446 12.7127 3.27446C12.8138 3.27446 12.911 3.31327 12.984 3.38281L23.166 13.0645C23.316 13.2076 23.5169 13.2857 23.7247 13.2817C23.9324 13.2777 24.1301 13.1918 24.2744 13.043C24.5756 12.7324 24.5506 12.2197 24.2371 11.9214Z" fill="white"/>
</g>
<defs>
<clipPath id="clip0_12_541">
<rect width="25.1214" height="25" fill="white" transform="translate(0.150513)"/>
</clipPath>
</defs>
</svg>
