<svg width="21" height="23" viewBox="0 0 21 23" fill="none" xmlns="http://www.w3.org/2000/svg">
<path d="M14.0055 2.15332C13.0507 1.12744 11.7171 0.5625 10.2451 0.5625C8.76534 0.5625 7.42733 1.12402 6.47694 2.14355C5.51624 3.17432 5.04816 4.5752 5.15806 6.08789C5.37591 9.07227 7.65793 11.5 10.2451 11.5C12.8323 11.5 15.1104 9.07275 15.3317 6.08887C15.4431 4.58984 14.9721 3.19189 14.0055 2.15332ZM18.8806 22.4375H1.60967C1.38361 22.4404 1.15974 22.3932 0.95434 22.2992C0.748942 22.2051 0.567186 22.0668 0.422295 21.894C0.103372 21.5146 -0.0251788 20.9966 0.0700077 20.4727C0.484118 18.1865 1.77649 16.2661 3.80779 14.918C5.61241 13.7212 7.89835 13.0625 10.2451 13.0625C12.5919 13.0625 14.8779 13.7217 16.6825 14.918C18.7138 16.2656 20.0062 18.186 20.4203 20.4722C20.5155 20.9961 20.3869 21.5142 20.068 21.8936C19.9231 22.0664 19.7414 22.2048 19.536 22.2989C19.3306 22.393 19.1067 22.4404 18.8806 22.4375Z" fill="white"/>
</svg>
